<?xml version="1.0" encoding="utf-8"?>
<!-- Generator: Adobe Illustrator 18.0.0, SVG Export Plug-In . SVG Version: 6.00 Build 0)  -->
<!DOCTYPE svg PUBLIC "-//W3C//DTD SVG 1.1//EN" "http://www.w3.org/Graphics/SVG/1.1/DTD/svg11.dtd">
<svg version="1.1" id="_x30_1_x5F_1" xmlns="http://www.w3.org/2000/svg" xmlns:xlink="http://www.w3.org/1999/xlink" x="0px"
	 y="0px" width="250px" height="250px" viewBox="0 0 250 250" enable-background="new 0 0 250 250" xml:space="preserve">
<path fill="#005E6D" stroke="#27CCFF" stroke-width="25" stroke-linecap="round" stroke-linejoin="round" stroke-miterlimit="10" d="
	M191,232.5H59c-22.9,0-41.5-18.6-41.5-41.5V59c0-22.9,18.6-41.5,41.5-41.5h132c22.9,0,41.5,18.6,41.5,41.5v132
	C232.5,213.9,213.9,232.5,191,232.5z"/>
<line fill="none" stroke="#FFFFFF" stroke-width="25" stroke-linecap="round" stroke-linejoin="round" stroke-miterlimit="10" x1="72.6" y1="125" x2="177.4" y2="125"/>
<g>
	<path fill="#FFFFFF" enable-background="new    " d="M80,84.7l38.5-38.6c3.6-3.6,9.3-3.6,12.9,0L170,84.7c3.2,3.2,0.9,8.7-3.6,8.7
		H83.6C79.1,93.4,76.8,87.9,80,84.7z"/>
	<path fill="#FFFFFF" enable-background="new    " d="M170,165.3l-38.5,38.6c-3.6,3.6-9.3,3.6-12.9,0L80,165.3
		c-3.2-3.2-0.9-8.7,3.6-8.7h82.7C170.9,156.6,173.2,162.1,170,165.3z"/>
</g>
</svg>
